<svg id="Layer_35" enable-background="new 0 0 64 64" height="512" viewBox="0 0 64 64" width="512" xmlns="http://www.w3.org/2000/svg"><g fill="#f0bc5e"><path d="m30.608 16.671-3.608 4.329 4 3 1.576-6.302z"/><path d="m23.392 16.671 3.608 4.329-4 3-1.576-6.302z"/><path d="m41 36v4h-18v-9h20v5z"/></g><path d="m60 45h-5.5c-.276 0-.5-.224-.5-.5 0-.109.035-.213.1-.3 1.871-2.493 2.9-5.583 2.9-8.7v-.5c0-2.757-2.243-5-5-5-1.103 0-2 .897-2 2v1.725c0 2.49-.97 4.83-2.73 6.591-.586.585-1.247 1.091-1.966 1.501l-5.57 3.183h-2.734v-2h-18.019c1.261-1.674 2.019-3.747 2.019-6 0-5.514-4.486-10-10-10s-10 4.486-10 10 4.486 10 10 10c1.422 0 2.774-.303 4-.841v16.841h22v-2h2.808l5 2h15.192c1.654 0 3-1.346 3-3 0-.771-.301-1.468-.78-2 .48-.532.78-1.229.78-2s-.301-1.468-.78-2c.48-.532.78-1.229.78-2s-.301-1.468-.78-2c.48-.532.78-1.229.78-2 0-1.654-1.346-3-3-3zm-57-8c0-4.411 3.589-8 8-8s8 3.589 8 8c0 1.893-.664 3.633-1.768 5.004-.792-.986-1.796-1.763-2.931-2.278 1.034-.917 1.699-2.239 1.699-3.726 0-2.757-2.243-5-5-5s-5 2.243-5 5c0 1.487.665 2.809 1.699 3.726-1.135.516-2.139 1.293-2.931 2.278-1.104-1.371-1.768-3.111-1.768-5.004zm5-1c0-1.654 1.346-3 3-3s3 1.346 3 3-1.346 3-3 3-3-1.346-3-3zm-1.792 7.391c1.125-1.492 2.895-2.391 4.792-2.391s3.667.9 4.792 2.391c-1.338 1.005-2.994 1.609-4.792 1.609s-3.454-.604-4.792-1.609zm10.792 1.609h14v16h-14zm18 16h-2v-16h2zm25 0h-14.808l-5-2h-3.192v-12h3.266l6.03-3.446c.873-.499 1.677-1.112 2.388-1.824 2.138-2.138 3.316-4.981 3.316-8.005v-1.725c1.654 0 3 1.346 3 3v.5c0 2.687-.888 5.351-2.501 7.501-.322.43-.499.962-.499 1.499 0 1.378 1.122 2.5 2.5 2.5h5.5c.551 0 1 .449 1 1s-.449 1-1 1h-5v2h5c.551 0 1 .449 1 1s-.449 1-1 1h-5v2h5c.551 0 1 .449 1 1s-.449 1-1 1h-5v2h5c.551 0 1 .449 1 1s-.449 1-1 1z"/><path d="m53 28c5.514 0 10-4.486 10-10s-4.486-10-10-10-10 4.486-10 10 4.486 10 10 10zm-4.792-3.609c1.125-1.492 2.895-2.391 4.792-2.391s3.667.9 4.792 2.391c-1.338 1.005-2.994 1.609-4.792 1.609s-3.454-.604-4.792-1.609zm1.792-7.391c0-1.654 1.346-3 3-3s3 1.346 3 3-1.346 3-3 3-3-1.346-3-3zm3-7c4.411 0 8 3.589 8 8 0 1.893-.664 3.633-1.768 5.004-.792-.986-1.796-1.763-2.931-2.278 1.034-.917 1.699-2.239 1.699-3.726 0-2.757-2.243-5-5-5s-5 2.243-5 5c0 1.487.665 2.809 1.699 3.726-1.135.516-2.139 1.293-2.931 2.278-1.104-1.371-1.768-3.111-1.768-5.004 0-4.411 3.589-8 8-8z"/><path d="m27 29c7.72 0 14-6.28 14-14s-6.28-14-14-14-14 6.28-14 14 6.28 14 14 14zm0-2c-3.37 0-6.416-1.402-8.598-3.647 1.152-3.765 4.61-6.353 8.598-6.353s7.446 2.588 8.598 6.353c-2.182 2.245-5.228 3.647-8.598 3.647zm-4-16c0-2.206 1.794-4 4-4s4 1.794 4 4-1.794 4-4 4-4-1.794-4-4zm4-8c6.617 0 12 5.383 12 12 0 2.409-.72 4.649-1.947 6.531-1.218-2.756-3.501-4.858-6.286-5.868 1.361-1.101 2.233-2.781 2.233-4.663 0-3.309-2.691-6-6-6s-6 2.691-6 6c0 1.882.872 3.562 2.232 4.663-2.785 1.009-5.068 3.112-6.286 5.868-1.226-1.882-1.946-4.122-1.946-6.531 0-6.617 5.383-12 12-12z"/><path d="m23 31h2v2h-2z"/><path d="m27 31h16v2h-16z"/><path d="m23 35h20v2h-20z"/><path d="m23 39h18v2h-18z"/><path d="m19 57h2v2h-2z"/><path d="m23 57h2v2h-2z"/><path d="m27 57h2v2h-2z"/></svg>