<?xml version="1.0" encoding="iso-8859-1"?>
<!-- Generator: Adobe Illustrator 19.0.0, SVG Export Plug-In . SVG Version: 6.00 Build 0)  -->
<svg version="1.1" id="Capa_1" xmlns="http://www.w3.org/2000/svg" xmlns:xlink="http://www.w3.org/1999/xlink" x="0px" y="0px"
	 viewBox="0 0 512.001 512.001" style="enable-background:new 0 0 512.001 512.001;" xml:space="preserve">
<path id="SVGCleanerId_0" style="fill:#FFCF59;" d="M434.501,448.925H421.58h-30.825h-12.921c-17.028,0-30.832,13.804-30.832,30.832
	v10.205c0,4.796,3.887,8.683,8.683,8.683h100.964c4.796,0,8.683-3.887,8.683-8.683v-10.205
	C465.332,462.729,451.529,448.925,434.501,448.925z"/>
<g>
	<path id="SVGCleanerId_0_1_" style="fill:#FFCF59;" d="M434.501,448.925H421.58h-30.825h-12.921
		c-17.028,0-30.832,13.804-30.832,30.832v10.205c0,4.796,3.887,8.683,8.683,8.683h100.964c4.796,0,8.683-3.887,8.683-8.683v-10.205
		C465.332,462.729,451.529,448.925,434.501,448.925z"/>
</g>
<path style="fill:#FFB55C;" d="M421.58,448.925h-4.309h-26.515h-11.414h-1.507c-17.028,0-30.832,13.804-30.832,30.832v10.205
	c0,4.796,3.887,8.683,8.683,8.683h39.436c-4.796,0-8.683-3.887-8.683-8.683v-10.205c0-0.144,0.001-0.288,0.003-0.432
	c0.045-3.247,3.597-5.233,6.411-3.615c4.148,2.384,8.989,3.692,14.143,3.536c14.579-0.442,25.997-12.77,25.997-27.356v-2.965
	L421.58,448.925L421.58,448.925z"/>
<path style="fill:#C3DA40;" d="M134.166,448.925h-12.921H90.42H77.499c-17.027,0-30.831,13.804-30.831,30.831v14.534
	c0,2.405,1.949,4.354,4.354,4.354h109.621c2.405,0,4.354-1.949,4.354-4.354v-14.534
	C164.998,462.729,151.194,448.925,134.166,448.925z"/>
<path style="fill:#ADBC15;" d="M121.245,448.925h-4.188H90.42h-9.465h-3.456c-17.027,0-30.831,13.804-30.831,30.831v14.534
	c0,2.405,1.949,4.354,4.354,4.354H90.58c-2.405,0-4.354-1.949-4.354-4.354v-14.534c0-0.035,0-0.071,0-0.106
	c0.014-4.224,4.577-6.983,8.34-5.061c3.795,1.939,8.15,2.932,12.756,2.661c13.235-0.776,23.389-12.118,23.389-25.376v-2.95H121.245z
	"/>
<path style="fill:#3F2725;" d="M422.491,225.699H354.9v42.557v60.445h113.247h23.121v-34.226
	C491.268,256.552,460.415,225.699,422.491,225.699z"/>
<path style="fill:#DBAE6E;" d="M468.147,367.606V327.7h16.896c11.002,0,19.953,8.951,19.953,19.953s-8.951,19.953-19.953,19.953
	L468.147,367.606L468.147,367.606z"/>
<path style="fill:#FAD393;" d="M406.167,457.719c-9.485,0-17.202-7.717-17.202-17.203V409.33l9.052,1.195
	c2.791,0.368,5.533,0.555,8.151,0.555c2.617,0,5.36-0.187,8.152-0.554l9.05-1.194v31.184
	C423.371,450.003,415.653,457.719,406.167,457.719z"/>
<path style="fill:#EDB769;" d="M405.881,440.517v-29.442c-2.532-0.013-5.176-0.195-7.865-0.55l-9.052-1.195v31.186
	c0,9.486,7.717,17.203,17.202,17.203c3.076,0,5.958-0.821,8.459-2.24C409.412,452.52,405.881,446.927,405.881,440.517z"/>
<path style="fill:#FAD393;" d="M462.796,291.086l-4.777,2.025c-7.114,3.016-15.074,4.61-23.023,4.61
	c-17.2,0-33.027-7.105-42.336-19.005l-3.2-4.09l-5.039,1.255c-1.373,0.342-2.781,0.517-4.195,0.523h-0.112l-11.599,0.386h-25.437
	v29.634v55.465l0.007,0.701l0.1,0.611c0.052,35.021,28.836,63.434,63.993,62.878c34.544-0.545,61.968-29.379,61.968-63.927v-66.86
	C469.147,292.021,465.809,289.809,462.796,291.086z"/>
<path style="fill:#EDB769;" d="M462.796,291.086l-4.777,2.025c-7.114,3.016-15.074,4.61-23.023,4.61
	c-17.2,0-33.027-7.105-42.336-19.005l-3.2-4.09l-5.04,1.255c-1.373,0.342-2.781,0.517-4.194,0.523h-0.112l-11.599,0.386h-25.437
	v24.969v4.666v55.465l0.007,0.701l0.1,0.611c0.052,35.021,28.836,63.434,63.993,62.878c7.719-0.122,15.079-1.665,21.861-4.36
	c-23.349-9.199-39.93-31.949-39.969-58.517l-0.1-0.611l-0.007-0.701v-55.465l0.12-1.652c0.133-1.828,2.447-2.532,3.577-1.089l0,0
	c9.309,11.9,25.136,19.005,42.336,19.005c7.947,0,15.909-1.594,23.023-4.609l4.777-2.025c3.013-1.277,6.351,0.935,6.351,4.206
	v-24.969C469.147,292.021,465.809,289.809,462.796,291.086z"/>
<path style="fill:#FFCF59;" d="M413.657,164.022l-15.603-72.395H276.098l-13.808,21.966c-2.514,4.001-8.428,3.746-10.589-0.456
	l-11.061-21.51H129.304l-19.875,65.869l-2.281,6.804c-1.971,5.879-10.44,5.408-11.745-0.654L79.881,91.625H57.272
	c-21.582,0-39.742-16.993-40.252-38.569c-0.525-22.225,17.401-40.473,39.511-40.473h399.477c21.582,0,39.742,16.993,40.252,38.569
	c0.525,22.226-17.401,40.474-39.511,40.474h-9.271l-19.875,65.869l-2.151,7.027C423.612,170.533,414.981,170.167,413.657,164.022z"
	/>
<path style="fill:#FFB55C;" d="M37.531,82.793c-0.525-22.225,17.401-40.474,39.511-40.474h399.477c7.01,0,13.653,1.802,19.454,4.962
	c-2.441-19.702-19.692-34.697-39.965-34.697H56.531c-22.109,0-40.036,18.249-39.511,40.474c0.344,14.568,8.741,27.038,20.798,33.607
	C37.661,85.392,37.562,84.101,37.531,82.793z"/>
<path style="fill:#31D2F7;" d="M286.831,428.098h-16.29h-29.384h-16.289c-19.82,0-35.887,16.067-35.887,35.887v26.733
	c0,4.796,3.887,8.683,8.682,8.683l116.352,0.016c4.794,0.001,8.682-3.884,8.685-8.678l0.016-26.755
	C322.718,444.196,306.619,428.098,286.831,428.098z"/>
<path style="fill:#13ACE8;" d="M240.759,499.4c-4.796-0.001-8.682-3.888-8.682-8.683v-26.733c0-0.047,0-0.095,0-0.142
	c0.021-5.429,5.986-8.889,10.71-6.213c4.187,2.371,9.078,3.641,14.276,3.409c14.309-0.639,25.394-12.828,25.394-27.151v-5.788
	h-11.915h-2.578h-26.806h-11.915h-4.374c-19.82,0-35.887,16.067-35.887,35.887v26.733c0,4.795,3.887,8.683,8.682,8.683
	l116.352,0.016c0.039,0,0.077-0.005,0.115-0.006L240.759,499.4z"/>
<path id="SVGCleanerId_1" style="fill:#F49E2C;" d="M150.987,222.616c-6.774-2.588-13.7-3.901-20.591-3.901
	c-12.537,0-20.587,4.405-20.636,4.434c-1.695,0.771-3.298,1.696-4.768,2.754c-2.569,1.851-5.669,2.83-8.962,2.83
	c-3.2,0-6.303-0.93-8.979-2.69c-7.987-5.254-17.561-8.031-27.684-8.031c-24.977,0-45.297,17.273-45.297,38.505
	c0,0.744,0.032,1.527,0.102,2.391c-0.068,0.953-0.102,1.797-0.102,2.582c0,5.057,1.057,10.009,3.141,14.726
	c-0.248,1.026-0.473,2.044-0.669,3.029c-1.018,5.096-1.534,10.336-1.534,15.573v38.748h143.371v-65.31v-45.147L150.987,222.616z"/>
<g>
	<path id="SVGCleanerId_1_1_" style="fill:#F49E2C;" d="M150.987,222.616c-6.774-2.588-13.7-3.901-20.591-3.901
		c-12.537,0-20.587,4.405-20.636,4.434c-1.695,0.771-3.298,1.696-4.768,2.754c-2.569,1.851-5.669,2.83-8.962,2.83
		c-3.2,0-6.303-0.93-8.979-2.69c-7.987-5.254-17.561-8.031-27.684-8.031c-24.977,0-45.297,17.273-45.297,38.505
		c0,0.744,0.032,1.527,0.102,2.391c-0.068,0.953-0.102,1.797-0.102,2.582c0,5.057,1.057,10.009,3.141,14.726
		c-0.248,1.026-0.473,2.044-0.669,3.029c-1.018,5.096-1.534,10.336-1.534,15.573v38.748h143.371v-65.31v-45.147L150.987,222.616z"/>
</g>
<path style="fill:#E88815;" d="M76.909,279.243c0.196-0.985,0.421-2.003,0.669-3.029c-2.084-4.717-3.141-9.67-3.141-14.726
	c0-0.784,0.033-1.629,0.102-2.582c-0.069-0.863-0.102-1.647-0.102-2.391c0-11.541,6.012-21.905,15.504-28.968
	c-1.004-0.404-1.973-0.902-2.89-1.506c-7.987-5.254-17.561-8.031-27.684-8.031c-24.977,0-45.297,17.273-45.297,38.505
	c0,0.744,0.032,1.527,0.102,2.391c-0.068,0.953-0.102,1.797-0.102,2.582c0,5.057,1.057,10.009,3.141,14.726
	c-0.248,1.026-0.473,2.044-0.669,3.029c-1.019,5.097-1.535,10.337-1.535,15.574v38.748h60.366v-38.748
	C75.374,289.579,75.89,284.339,76.909,279.243z"/>
<path style="fill:#DBAE6E;" d="M26.957,367.606c-11.002,0-19.953-8.95-19.953-19.952s8.951-19.953,19.953-19.953h16.896v39.906
	H26.957V367.606z"/>
<path style="fill:#353535;" d="M340.979,189.448l-2.461-2.806c-0.093-11.911-9.039-23.521-24.576-31.883
	c-15.183-8.172-35.534-12.673-57.302-12.673s-42.119,4.5-57.302,12.673c-15.536,8.363-24.482,19.973-24.576,31.883l-2.437,2.779
	c-9.638,9.637-14.946,22.43-14.946,36.023v43.267h21.543h155.437h21.543v-43.267C355.901,211.853,350.594,199.06,340.979,189.448z"
	/>
<path style="fill:#302A21;" d="M250.043,189.422l2.437-2.779c0.093-11.909,9.039-23.521,24.576-31.883
	c5.522-2.973,11.734-5.452,18.443-7.413c-11.737-3.431-25.008-5.26-38.859-5.26c-21.768,0-42.119,4.5-57.302,12.673
	c-15.536,8.363-24.482,19.973-24.576,31.883l-2.437,2.779c-9.638,9.637-14.946,22.43-14.946,36.023v43.267h21.543h56.176v-43.267
	C235.097,211.852,240.405,199.058,250.043,189.422z"/>
<path style="fill:#FAD393;" d="M105.833,462.722c-9.486,0-17.203-7.717-17.203-17.203v-30.185l9.052,1.195
	c2.791,0.368,5.533,0.555,8.151,0.555s5.361-0.187,8.151-0.555l9.052-1.195v30.185C123.036,455.005,115.319,462.722,105.833,462.722
	z"/>
<path style="fill:#EDB769;" d="M104.607,445.519v-28.457c-2.245-0.049-4.566-0.222-6.927-0.533l-9.052-1.195v30.185
	c0,9.486,7.717,17.203,17.203,17.203c2.884,0,5.599-0.721,7.989-1.981C108.351,457.858,104.607,452.121,104.607,445.519z"/>
<path style="fill:#FAD393;" d="M144.877,276.619l-13.104-0.215c-1.417-0.007-2.828-0.184-4.194-0.523l-5.04-1.255l-3.2,4.09
	c-9.309,11.901-25.136,19.005-42.336,19.005c-7.948,0-15.909-1.594-23.022-4.609l-7.083-3.003c-1.919-0.813-4.046,0.594-4.046,2.679
	v69.364c0,34.561,27.445,63.402,62.002,63.929c35.173,0.536,63.959-27.92,63.959-62.973v-56.517v-29.392L144.877,276.619z"/>
<path style="fill:#EDB769;" d="M144.877,276.619l-13.104-0.215c-1.417-0.007-2.828-0.184-4.194-0.523l-5.04-1.255l-3.2,4.09
	c-7.614,9.734-19.592,16.253-33.113,18.306l0,0c-0.007,0.001-0.014,0.002-0.021,0.003c-0.81,0.123-1.626,0.227-2.446,0.318
	c-0.373,0.041-0.749,0.072-1.124,0.107c-0.606,0.055-1.215,0.104-1.827,0.142c-0.326,0.02-0.651,0.041-0.979,0.056
	c-0.938,0.043-1.879,0.073-2.827,0.073c-7.948,0-15.909-1.594-23.022-4.609l-7.083-3.003c-1.919-0.813-4.046,0.595-4.046,2.679
	v24.335v45.009c0,34.134,26.768,62.801,60.883,63.921c8.404,0.276,16.451-1.121,23.856-3.856
	c-24.231-9.024-41.366-32.743-41.366-60.046v-19.889c0-11.049,6.349-21.091,16.298-25.9c6.681-3.23,12.462-7.745,16.815-13.311l0,0
	c1.946-2.488,5.174-3.599,8.238-2.836l0,0c1.367,0.34,2.779,0.516,4.194,0.523l13.104,0.215l23.936,0.581v-24.336L144.877,276.619z"
	/>
<path style="fill:#93682A;" d="M161.435,307.425c-10.949,0-19.858-8.908-19.858-19.858c0-10.95,8.908-19.858,19.858-19.858h17.488
	v39.715L161.435,307.425L161.435,307.425z"/>
<path style="fill:#A07530;" d="M255.849,437.999c-9.86,0-17.883-8.022-17.883-17.883v-39.748l8.995,1.122
	c3.377,0.421,6.544,0.625,9.677,0.625c2.701,0,5.475-0.148,8.245-0.441l8.847-0.936v39.377
	C273.732,429.978,265.71,437.999,255.849,437.999z"/>
<path style="fill:#825211;" d="M255.849,420.117v-38.013c-2.879-0.031-5.793-0.227-8.888-0.613l-8.995-1.122v39.748
	c0,9.86,8.022,17.883,17.883,17.883c3.259,0,6.307-0.891,8.941-2.419C259.454,432.482,255.849,426.719,255.849,420.117z"/>
<path style="fill:#93682A;" d="M334.358,307.425V267.71h17.488c10.949,0,19.858,8.908,19.858,19.858
	c0,10.95-8.908,19.858-19.858,19.858L334.358,307.425L334.358,307.425z"/>
<path style="fill:#A07530;" d="M255.862,395.121c-43.336-0.42-77.941-36.381-77.941-79.718v-89.957c0-2.863,0.4-5.703,1.189-8.442
	l0,0c1.542-5.353,7.943-7.533,12.432-4.234l0,0c15.399,11.317,39.126,17.808,65.098,17.808c25.543,0,49.881-6.66,65.104-17.815l0,0
	c4.489-3.29,10.882-1.107,12.423,4.241l0,0c0.79,2.743,1.191,5.584,1.191,8.439v90.965
	C335.359,360.07,299.623,395.545,255.862,395.121z"/>
<path style="fill:#825211;" d="M334.167,217.002c-1.365-5.457-6.477-7.639-11.36-4.848l-1.063,0.607
	c-15.223,11.155-39.562,17.815-65.104,17.815c-25.972,0-49.699-6.491-65.098-17.808c-4.488-3.299-10.89-1.118-12.432,4.234l0,0
	c-0.788,2.738-1.189,5.578-1.189,8.442v89.957c0,42.085,32.659,77.486,74.69,79.62c9.887,0.502,19.393-0.863,28.229-3.727
	c-29.404-12.34-49.961-41.757-49.961-75.578v-30.581c0-14.042,11.452-25.275,25.494-25.251c0.089,0,0.178,0,0.268,0
	c26.202,0,51.17-6.832,66.785-18.275l0,0c4.03-2.954,9.557-1.606,11.932,2.454V225.44c0-2.021-0.401-5.278-0.891-7.239
	L334.167,217.002z"/>
<path d="M498.271,324.179v-29.704c0-41.852-33.927-75.78-75.78-75.78H362.5c-1.484-12.829-7.17-24.723-16.414-34.046l-0.703-0.801
	c-2.571-27.577-40.625-48.766-88.744-48.766s-86.172,21.189-88.744,48.767l-0.701,0.799c-8.417,8.487-13.882,19.108-15.916,30.624
	c-23.984-8.264-41.887,0.176-44.628,1.597c-2.038,0.943-3.97,2.068-5.748,3.348c-2.845,2.048-6.864,2.037-10-0.027
	c-9.133-6.009-20.038-9.185-31.534-9.185c-28.839,0-52.3,20.415-52.3,45.509c0,0.766,0.027,1.551,0.083,2.435
	c-0.056,0.908-0.083,1.742-0.083,2.537c0,5.246,0.949,10.391,2.824,15.33c-0.075,0.354-0.148,0.705-0.217,1.054
	c-1.106,5.548-1.668,11.25-1.668,16.947v33.688c-5.053,5.002-8.144,11.98-7.999,19.667c0.279,14.777,12.732,26.438,27.512,26.438
	h9.294c4.154,25.006,21.598,45.575,44.815,54.161v13.15H77.5c-20.895,0-37.835,16.939-37.835,37.835v11.565
	c0,7.912,6.414,14.327,14.327,14.327h103.682c7.912,0,14.327-6.415,14.327-14.327v-11.565c0-20.895-16.939-37.835-37.835-37.835
	h-4.127v-13.15c26.58-9.83,45.614-35.361,45.776-65.279c0.021-3.892-2.732-7.385-6.599-7.836c-4.548-0.531-8.409,3.01-8.409,7.451
	c0,30.598-25.127,55.438-55.83,54.97c-30.165-0.46-54.121-25.635-54.121-55.803v-61.793c8.057,3.416,17,5.244,26.145,5.244
	c19.831,0,37.882-8.323,48.642-22.078c1.978,0.492,4.022,0.75,6.087,0.761l3.022,0.101c-0.114,1.005-0.179,2.024-0.179,3.059
	c0,14.811,12.05,26.862,26.862,26.862h9.483v1.977c0,38.326,25.284,70.853,60.047,81.79v20.921c0,0.666,0.034,1.324,0.086,1.977
	h-6.18c-23.688,0-42.89,19.202-42.89,42.89v27.411c0,8.298,6.727,15.024,15.024,15.024h48.671c4.145,0,7.505-3.36,7.505-7.505
	v-0.007c0-4.144-3.36-7.505-7.504-7.505l-48.689-0.007v-27.412c0-15.398,12.483-27.881,27.881-27.881h12.817
	c4.544,4.857,11.004,7.9,18.165,7.9c7.16,0,13.619-3.044,18.164-7.9h12.817c15.374,0,27.882,12.507,27.882,27.881l-0.016,27.428
	l-20.191-0.003c-4.145-0.001-7.506,3.36-7.506,7.505l0,0c0,4.145,3.36,7.505,7.505,7.505h20.192c8.298,0,15.024-6.727,15.024-15.024
	v-27.412c0-23.687-19.202-42.889-42.889-42.889h-6.181c0.052-0.653,0.086-1.311,0.086-1.977v-20.461
	c35.57-10.439,61.627-43.35,61.627-82.252v-1.977h9.483c14.811,0,26.862-12.05,26.862-26.862c0-1.05-0.067-2.083-0.185-3.102
	l1.748-0.058c2.065-0.011,4.109-0.269,6.087-0.761c10.76,13.755,28.81,22.078,48.641,22.078c9.145,0,18.089-1.828,26.146-5.244
	v61.739c0,30.667-24.721,56.089-55.387,55.862c-30.065-0.221-54.468-24.7-54.565-54.795c-0.011-3.48-2.254-6.643-5.637-7.458
	c-4.953-1.195-9.371,2.526-9.371,7.279c0,30.083,19.082,55.791,45.777,65.664v13.15h-4.126c-20.896,0-37.836,16.939-37.836,37.836
	v11.564c0,7.912,6.414,14.327,14.327,14.327h103.682c7.912,0,14.327-6.415,14.327-14.327v-11.565
	c0-20.895-16.939-37.835-37.835-37.835h-4.127v-13.149c23.218-8.587,40.661-29.156,44.815-54.161h9.303
	c14.879,0,27.367-11.821,27.507-26.7C512.094,337.745,506.528,328.851,498.271,324.179z M96.634,432.468
	c3.013,0.397,6.079,0.623,9.199,0.623c3.12,0,6.186-0.226,9.199-0.623v10.049c0,5.072-4.127,9.199-9.199,9.199
	c-5.072,0-9.199-4.127-9.199-9.199V432.468z M105.833,466.724c7.952,0,15.02-3.856,19.436-9.795h8.898
	c12.587,0,22.827,10.24,22.827,22.826v10.884H54.673v-10.884c0-12.587,10.24-22.826,22.826-22.826h8.898
	C90.812,462.869,97.88,466.724,105.833,466.724z M396.968,432.468c3.013,0.397,6.079,0.623,9.199,0.623s6.185-0.226,9.198-0.623
	v10.049c0,5.072-4.127,9.199-9.199,9.199c-5.072,0-9.198-4.127-9.198-9.199V432.468z M434.501,456.929
	c12.587,0,22.826,10.24,22.826,22.826v10.884H355.006v-10.884c0-12.587,10.241-22.826,22.827-22.826h8.898
	c4.415,5.939,11.483,9.795,19.436,9.795s15.02-3.856,19.436-9.795H434.501z M35.848,359.601h-8.892
	c-6.589,0-11.949-5.36-11.949-11.948s5.36-11.948,11.949-11.948h8.892V359.601z M141.389,269.712l-9.272-0.308
	c-0.083-0.002-0.167-0.004-0.25-0.004c-1.877,0-3.698-0.482-5.267-1.396c-3.565-2.076-8.143-0.882-10.241,2.675
	c-7.173,12.172-22.621,20.036-39.357,20.036c-10.824,0-21.205-3.223-29.231-9.074c-3.351-2.441-8.043-1.705-10.485,1.643
	c-1.186,1.626-1.616,3.568-1.368,5.416c-0.041,0.319-0.07,0.641-0.07,0.972v31.024h-8.892c-1.34,0-2.656,0.102-3.944,0.291v-26.17
	c0-4.713,0.464-9.425,1.38-14.008c0.186-0.93,0.4-1.895,0.637-2.87c0.394-1.617,0.239-3.32-0.441-4.84
	c-1.667-3.727-2.512-7.635-2.512-11.614c0-0.59,0.026-1.247,0.081-2.008c0.026-0.364,0.026-0.729-0.001-1.094
	c-0.055-0.735-0.08-1.331-0.08-1.871c0-16.818,16.729-30.501,37.292-30.501c8.556,0,16.608,2.322,23.285,6.715
	c8.301,5.463,19.159,5.33,27.018-0.331c1.04-0.747,2.184-1.408,3.403-1.962c0.187-0.085,0.371-0.178,0.55-0.278
	c0.141-0.079,14.677-7.668,34.564-0.041c0.719,0.276,1.456,0.433,2.186,0.481v32.502
	C146.932,264.661,143.875,266.925,141.389,269.712z M170.917,299.421h-9.483c-6.536,0-11.853-5.317-11.853-11.853
	c0-6.537,5.317-11.853,11.853-11.853h9.483V299.421z M265.728,419.117c0,5.447-4.431,9.878-9.877,9.878
	c-5.447,0-9.878-4.431-9.878-9.878V401.44c3.498,0.436,7.053,0.687,10.668,0.687c3.07,0,6.1-0.17,9.088-0.486V419.117z
	 M327.354,316.406c0,38.992-31.722,70.715-70.715,70.715s-70.715-31.722-70.715-70.714v-90.962c0-2.124,0.297-4.217,0.875-6.226
	c16.619,12.214,42.098,19.363,69.838,19.363c27.538,0,53.207-7.177,69.836-19.363c0.58,2.013,0.878,4.111,0.878,6.226
	L327.354,316.406L327.354,316.406z M337.505,206.994c-1.32-2.327-3.779-3.775-6.454-3.8l-5.738-0.055c-0.024,0-0.048,0-0.072,0
	c-1.78,0-3.502,0.632-4.86,1.786c-13.534,11.502-37.959,18.648-63.741,18.648c-26.843,0-51.758-7.582-65.024-19.788
	c-1.367-1.258-3.152-1.963-5.009-1.981l-3.373-0.032c-2.564-0.037-4.988,1.276-6.382,3.443c-3.882,6.033-5.934,13.029-5.934,20.23
	v35.262h-5.534v-35.262c0-11.454,4.475-22.238,12.602-30.363c0.116-0.116,0.228-0.235,0.335-0.358l2.582-2.944
	c1.201-1.369,1.863-3.128,1.863-4.949c0-17.743,29.684-36.741,73.874-36.741s73.874,18.997,73.874,36.741
	c0,1.821,0.662,3.58,1.863,4.949l2.584,2.946c0.107,0.123,0.219,0.242,0.334,0.357c8.125,8.125,12.6,18.907,12.6,30.361v35.262
	h-5.534v-35.262C342.362,218.975,340.683,212.595,337.505,206.994z M351.845,299.421h-9.483v-23.706h9.483
	c6.536,0,11.853,5.317,11.853,11.853C363.698,294.105,358.381,299.421,351.845,299.421z M474.714,283.286
	c-2.442-3.349-7.136-4.085-10.485-1.643c-8.026,5.852-18.407,9.074-29.232,9.074c-16.736,0-32.185-7.864-39.357-20.036
	c-2.096-3.558-6.674-4.753-10.241-2.675c-1.568,0.912-3.389,1.396-5.267,1.396c-0.083,0-0.166,0.001-0.25,0.004l-8.028,0.267
	c-2.479-2.77-5.524-5.018-8.95-6.573v-29.395h59.586c33.51,0,60.772,27.262,60.772,60.772v26.221h-7.112v-31.024
	c0-0.33-0.029-0.652-0.07-0.972C476.329,286.854,475.899,284.912,474.714,283.286z M485.043,359.601h-8.892v-23.897h8.892
	c6.589,0,11.948,5.36,11.948,11.948S491.632,359.601,485.043,359.601z"/>
<path d="M56.531,98.63h17.696l13.76,63.848c1.358,6.303,6.6,10.713,13.042,10.973c6.439,0.273,12.023-3.711,13.885-9.884
	l19.594-64.936h101.859l8.456,16.441c2.315,4.502,6.718,7.321,11.776,7.539c5.069,0.229,9.687-2.21,12.382-6.498l10.988-17.482
	H392.4l13.76,63.848c1.358,6.303,6.6,10.713,13.042,10.973c0.2,0.008,0.398,0.012,0.596,0.012c6.188,0,11.484-3.916,13.288-9.897
	l19.594-64.936h4.068c25.654,0,46.525-20.871,46.525-46.525S482.403,5.58,456.749,5.58H56.531
	c-25.654,0-46.525,20.871-46.525,46.525S30.877,98.63,56.531,98.63z M56.531,20.588h400.218c17.378,0,31.517,14.139,31.517,31.517
	s-14.139,31.517-31.517,31.517h-9.643c-3.31,0-6.228,2.168-7.184,5.336l-19.982,66.224l-14.147-65.638
	c-0.744-3.456-3.8-5.923-7.336-5.923H275.82c-2.58,0-4.98,1.326-6.353,3.511l-12.176,19.371l-9.673-18.809
	c-1.287-2.5-3.862-4.072-6.674-4.072H128.932c-3.31,0-6.228,2.168-7.184,5.336l-19.982,66.224L87.621,89.545
	c-0.744-3.456-3.8-5.923-7.336-5.923H56.531c-17.378,0-31.517-14.139-31.517-31.517S39.152,20.588,56.531,20.588z"/>
<g>
</g>
<g>
</g>
<g>
</g>
<g>
</g>
<g>
</g>
<g>
</g>
<g>
</g>
<g>
</g>
<g>
</g>
<g>
</g>
<g>
</g>
<g>
</g>
<g>
</g>
<g>
</g>
<g>
</g>
</svg>
