<svg height="496pt" viewBox="-120 0 496 496" width="496pt" xmlns="http://www.w3.org/2000/svg"><path d="m224 464h-192v-224h192zm0 0" fill="#f0bc5e"/><path d="m232 144h-55.9375c19.570312-14.65625 31.9375-37.945312 31.9375-64v-80h-16v80c0 27.855469-17.609375 51.808594-43.121094 60.511719l4.058594-36.511719h-49.875l4.058594 36.511719c-25.519532-8.703125-43.121094-32.648438-43.121094-60.511719v-80h-16v80c0 26.0625 12.367188 49.34375 31.9375 64h-55.9375c-13.230469 0-24 10.769531-24 24v304c0 13.230469 10.769531 24 24 24h208c13.230469 0 24-10.769531 24-24v-304c0-13.230469-10.769531-24-24-24zm-121.824219 24.007812 2.664063 23.992188h30.320312l2.664063-23.992188c3.894531 4.289063 6.175781 9.902344 6.175781 15.992188 0 13.230469-10.769531 24-24 24s-24-10.769531-24-24c0-6.089844 2.28125-11.703125 6.175781-15.992188zm24.886719-48.007812-6.222656 56h-1.679688l-6.222656-56zm104.9375 352c0 4.40625-3.59375 8-8 8h-208c-4.40625 0-8-3.59375-8-8v-304c0-4.40625 3.59375-8 8-8h72.230469c-5.167969 6.808594-8.230469 15.167969-8.230469 24 0 22.054688 17.945312 40 40 40s40-17.945312 40-40c0-8.832031-3.0625-17.191406-8.230469-24h72.230469c4.40625 0 8 3.59375 8 8zm0 0"/><path d="m176 200h16v16h-16zm0 0"/><path d="m208 200h16v16h-16zm0 0"/><path d="m32 200h16v16h-16zm0 0"/><path d="m64 200h16v16h-16zm0 0"/><path d="m150.929688 324.519531-22.929688-35.167969-22.929688 35.167969-38.148437 11.824219 24.199219 33.082031-1.097656 42.222657 37.976562-14.199219 37.96875 14.199219-1.097656-42.222657 24.199218-33.082031zm-1.570313 63.832031-21.359375-7.992187-21.359375 7.992187.632813-23.96875-14.195313-19.390624 22.25-6.894532 12.671875-19.449218 12.671875 19.449218 22.25 6.894532-14.195313 19.390624zm0 0"/></svg>