<?xml version="1.0" encoding="iso-8859-1"?>
<!-- Generator: Adobe Illustrator 22.1.0, SVG Export Plug-In . SVG Version: 6.00 Build 0)  -->
<svg xmlns="http://www.w3.org/2000/svg" xmlns:xlink="http://www.w3.org/1999/xlink" version="1.1" id="Layer_1_1_" x="0px" y="0px" viewBox="0 0 64 64" style="enable-background:new 0 0 64 64;" xml:space="preserve" width="512" height="512">
<g>
	<rect x="27" y="16" style="fill:#F0BC5E;" width="13" height="8"/>
	<path style="fill:#F0BC5E;" d="M46,54v-1.804h0.009c-1.229-0.709-2.18-1.84-2.66-3.196h-0.007H43h-0.001   C41.343,49,40,47.657,40,46.001c0-1.657,1.343-3,3-3.001h1.394c2.351,0,4.649-0.696,6.606-2l0.586,0.586   C52.491,42.491,53.719,43,55,43l0.081,0C56.692,42.998,58,44.304,58,45.915v0.075C58,47.659,56.655,49,55.001,49C55,49,55,49,55,49   h-0.341h-0.007c-0.48,1.356-1.431,2.487-2.66,3.196H52V54l7,2.1V41c0-5.514-4.486-10-10-10s-10,4.486-10,10v15.1L46,54z"/>
	<path style="fill:#F0BC5E;" d="M15,31C9.486,31,5,35.486,5,41v5h1.001C6.001,45.997,6,45.994,6,45.991v-0.075   C6,44.304,7.308,42.998,8.919,43L9,43c1.281,0,2.509-0.509,3.414-1.414L13,41c1.956,1.304,4.255,2,6.606,2H21   c1.657,0,2.999,1.343,3,3h1v-5C25,35.486,20.514,31,15,31z"/>
	<g>
		<path d="M25.437,55.187L19,53.256v-0.519c1.001-0.7,1.807-1.655,2.331-2.77C23.38,49.795,25,48.093,25,46.001    c0-2.206-1.794-4-4-4.001h-1.395c-2.161,0-4.253-0.633-6.051-1.832l-0.682-0.455l-1.166,1.166C10.984,41.602,10.022,42,8.92,42    c-0.001,0-0.003,0-0.005,0c-1.045,0-2.028,0.407-2.767,1.145C5.408,43.885,5,44.869,5,45.991c0,2.097,1.62,3.804,3.669,3.976    c0.524,1.115,1.33,2.07,2.331,2.77v0.519l-6.437,1.931C2.432,55.826,1,57.751,1,59.976V63h28v-3.024    C29,57.751,27.568,55.826,25.437,55.187z M23,46.001c0,0.753-0.424,1.402-1.041,1.743C21.985,47.499,22,47.251,22,47v-2.721    C22.595,44.626,23,45.264,23,46.001z M7,45.916c0-0.512,0.2-0.993,0.562-1.355C7.691,44.431,7.841,44.331,8,44.245V47    c0,0.25,0.014,0.497,0.04,0.74C7.423,47.392,7,46.724,7,45.916z M10,47v-3.09c1.176-0.203,2.26-0.756,3.121-1.617l0.025-0.025    C15.108,43.403,17.325,44,19.605,44H20v3c0,2.757-2.243,5-5,5S10,49.757,10,47z M16.964,53.714L15,56.333l-1.964-2.619    C13.66,53.897,14.318,54,15,54S16.34,53.897,16.964,53.714z M27,61H3v-1.024c0-1.335,0.859-2.49,2.138-2.873l6.481-1.945    L15,59.667l3.381-4.508l6.481,1.945C26.141,57.486,27,58.641,27,59.976V61z"/>
		<path d="M59.437,55.187L53,53.256v-0.519c1.001-0.7,1.807-1.655,2.331-2.77C57.38,49.795,59,48.084,59,45.916    c0-1.047-0.408-2.031-1.148-2.771C57.112,42.407,56.129,42,55.005,42c-0.002,0-0.003,0-0.005,0c-1.022,0-1.984-0.398-2.707-1.121    l-1.166-1.166l-0.682,0.455C48.647,41.367,46.555,42,44.395,42H43c-2.205,0-4,1.795-4,4.001c0,2.092,1.62,3.794,3.669,3.966    c0.525,1.115,1.33,2.07,2.331,2.77v0.519l-6.437,1.931C36.432,55.826,35,57.751,35,59.976V63h28v-3.024    C63,57.751,61.568,55.826,59.437,55.187z M57,45.991c0,0.757-0.424,1.409-1.04,1.752C55.985,47.498,56,47.251,56,47v-2.758    c0.157,0.086,0.307,0.188,0.438,0.318C56.8,44.922,57,45.403,57,45.991z M41,46.001c0-0.737,0.405-1.375,1-1.722V47    c0,0.252,0.015,0.5,0.041,0.744C41.424,47.404,41,46.754,41,46.001z M44,47v-3h0.395c2.281,0,4.498-0.597,6.459-1.732l0.025,0.025    c0.852,0.852,1.922,1.403,3.121,1.611V47c0,2.757-2.243,5-5,5S44,49.757,44,47z M49,54c0.695,0,1.366-0.105,2-0.295V54    c0,1.103-0.897,2-2,2s-2-0.897-2-2v-0.295C47.634,53.895,48.305,54,49,54z M37,59.976c0-1.335,0.859-2.49,2.138-2.873l6.09-1.827    c0.43,1.266,1.467,2.243,2.772,2.582V61H37V59.976z M61,61H50v-3.142c1.305-0.339,2.342-1.316,2.772-2.582l6.09,1.827    C60.141,57.486,61,58.641,61,59.976V61z"/>
		<path d="M16.311,24.971l2.398,5.994L23.48,25h16.105l5.779,5.779l2.324-5.809C51.779,24.62,55,21.179,55,17    c0-3.302-2.072-6.278-5.114-7.458C49.173,4.701,44.954,1,40,1c-2.327,0-4.465,0.806-6.166,2.143C31.836,1.76,29.442,1,27,1    c-5.136,0-9.706,3.311-11.35,8.123C11.881,9.768,9,13.05,9,17C9,21.179,12.221,24.62,16.311,24.971z M17,11c3.309,0,6,2.691,6,6h2    c0-4.134-3.152-7.545-7.178-7.958C19.384,5.43,22.983,3,27,3c1.931,0,3.761,0.541,5.359,1.563C30.89,6.304,30,8.549,30,11h2    c0-4.411,3.589-8,8-8c4.142,0,7.641,3.234,7.967,7.363l0.054,0.688l0.663,0.193C51.225,11.986,53,14.353,53,17    c0,3.309-2.691,6-6,6h-0.677l-1.688,4.221L40.414,23H22.52l-3.229,4.035L17.677,23H17c-3.309,0-6-2.691-6-6S13.691,11,17,11z"/>
		<rect x="23" y="19" width="2" height="2"/>
		<rect x="27" y="19" width="13" height="2"/>
		<rect x="27" y="15" width="13" height="2"/>
	</g>
</g>
</svg>
