<?xml version="1.0" encoding="iso-8859-1"?>
<!-- Generator: Adobe Illustrator 19.0.0, SVG Export Plug-In . SVG Version: 6.00 Build 0)  -->
<svg version="1.1" id="Capa_1" xmlns="http://www.w3.org/2000/svg" xmlns:xlink="http://www.w3.org/1999/xlink" x="0px" y="0px"
	 viewBox="0 0 512 512" style="enable-background:new 0 0 512 512;" xml:space="preserve">
<path style="fill:#FFCF59;" d="M192.636,192.864h-6.411c-19.012,0-34.425-15.413-34.425-34.425V86.925
	c0-19.012,15.413-34.425,34.425-34.425h138.551c19.012,0,34.425,15.413,34.425,34.425v71.515c0,19.012-15.413,34.425-34.425,34.425
	H219.853l-19.426,23.944c-2.602,3.207-7.791,1.367-7.791-2.763V192.864z"/>
<path style="fill:#FFB55C;" d="M324.775,52.5h-138.55c-17.626,0-32.149,13.25-34.174,30.332h126.925
	c19.012,0,34.425,15.413,34.425,34.425v71.515c0,1.386-0.091,2.75-0.25,4.093h11.625c19.012,0,34.425-15.413,34.425-34.425V86.925
	C359.2,67.913,343.788,52.5,324.775,52.5z"/>
<path style="fill:#FFCF59;" d="M259.147,443.864H154.225c-19.012,0-34.425-15.413-34.425-34.425v-71.515
	c0-19.012,15.413-34.425,34.425-34.425h138.551c19.012,0,34.425,15.413,34.425,34.425v71.515c0,19.012-15.413,34.425-34.425,34.425
	h-6.411v21.181c0,4.13-5.189,5.97-7.791,2.763L259.147,443.864z"/>
<path style="fill:#FFB55C;" d="M156,435.939v-71.515C156,345.413,171.412,330,190.425,330h135.848
	c-3.581-15.19-17.214-26.5-33.498-26.5h-138.55c-19.012,0-34.425,15.413-34.425,34.425v71.515c0,19.012,15.413,34.425,34.425,34.425
	h2.702C156.327,441.319,156,438.668,156,435.939z"/>
<path style="fill:#3F2725;" d="M484.54,289.714C471.63,277.001,454.573,270,436.511,270c-0.357,0-0.718,0.002-1.075,0.008
	C398.252,270.575,368,301.764,368,339.532v90.363c0,9.585,3.944,18.934,10.821,25.65l6.444,6.293l101.873,3.125l6.93-6.715
	c6.947-6.73,10.932-16.116,10.932-25.751V338.5C505,320.034,497.734,302.709,484.54,289.714z"/>
<path style="fill:#FAD393;" d="M421,452.504v-57.51l9.161,2.431c2.116,0.561,4.249,0.846,6.339,0.846
	c1.517,0,3.083-0.154,4.653-0.455l8.847-1.702v56.391h-29V452.504z"/>
<path style="fill:#EDB769;" d="M430.161,397.425L421,394.994v57.51h14.5v-54.267C433.732,398.161,431.941,397.897,430.161,397.425z"
	/>
<path style="fill:#FF62A7;" d="M392.887,505c-6.003,0-10.887-4.884-10.887-10.887v-16.635C382,456.262,399.262,439,420.479,439
	h30.043C471.738,439,489,456.262,489,477.479v16.635c0,6.003-4.884,10.887-10.887,10.887h-85.226V505z"/>
<path style="fill:#FAD393;" d="M437.273,410.993C412.376,411.42,392,390.611,392,365.711v-17.497c0-1.596,1.241-2.917,2.834-3.017
	l4.667-0.292c22.515-1.407,40.928-18.469,44.044-40.811l1.107-7.936c0.183-1.309,1.57-2.077,2.777-1.537l7.311,3.277
	C470.692,305.049,481,320.985,481,338.5v28C481,390.779,461.455,410.579,437.273,410.993z"/>
<path style="fill:#EDB769;" d="M421.927,352.136L421.927,352.136c0-1.103,0.767-2.072,1.849-2.288
	c20.018-3.992,35.707-20.247,38.591-40.929l0.84-6.026c-2.597-1.95-5.429-3.633-8.468-4.994l-7.311-3.277
	c-0.965-0.433-2.036-0.02-2.523,0.83l-1.044,7.485c-0.318,2.279-0.808,4.496-1.425,6.656c-5.133,19.591-22.308,34.023-42.935,35.312
	l-4.667,0.292c-1.593,0.099-2.834,1.42-2.834,3.017v17.497c0,24.641,19.691,45.196,44.331,45.289
	c12.056,0.046,23.009-4.738,31.057-12.512C442.307,398.419,421.927,377.331,421.927,352.136z"/>
<path style="fill:#FAD393;" d="M46,199.427v-67.251l9.002,2.424c2.271,0.61,4.396,0.907,6.498,0.907c1.527,0,3.087-0.16,4.766-0.489
	L75,133.304v66.123H46z"/>
<path style="fill:#EDB769;" d="M55.002,134.6L46,132.176v67.251h14.5v-63.955C58.722,135.393,56.915,135.114,55.002,134.6z"/>
<path style="fill:#0071B7;" d="M17.887,249C11.884,249,7,244.116,7,238.113v-16.635C7,200.262,24.262,183,45.479,183h30.043
	C96.738,183,114,200.262,114,221.479v16.635c0,6.003-4.884,10.887-10.887,10.887L17.887,249L17.887,249z"/>
<path style="fill:#FC5479;" d="M421,494.113v-16.635c0-19.701,14.886-35.982,34-38.209c-1.47-0.171-2.963-0.269-4.479-0.269h-30.043
	C399.262,439,382,456.262,382,477.479v16.635c0,6.003,4.884,10.887,10.887,10.887h39C425.884,505,421,500.116,421,494.113z"/>
<path style="fill:#065A84;" d="M46,238.113v-16.635c0-19.701,14.886-35.982,34-38.209c-1.47-0.171-2.963-0.269-4.479-0.269H45.479
	C24.262,183,7,200.262,7,221.479v16.635C7,244.116,11.884,249,17.887,249h39C50.884,249,46,244.116,46,238.113z"/>
<path style="fill:#FAD393;" d="M61.5,155C32.552,155,9,131.448,9,102.5V64h105v38.5C114,131.448,90.448,155,61.5,155z"/>
<path style="fill:#EDB769;" d="M51.524,102.5V64H9v38.5C9,131.448,32.552,155,61.5,155c7.566,0,14.757-1.622,21.262-4.515
	C64.38,142.307,51.524,123.882,51.524,102.5z"/>
<path style="fill:#353535;" d="M9,65V54.87C9,28.475,30.475,7,56.87,7h79.672C143.963,7,150,13.037,150,20.458
	c0,20.924-14.771,39.567-35.121,44.331l-0.9,0.211H9z"/>
<path d="M324.775,45.5h-138.55c-22.878,0-41.425,18.547-41.425,41.425v71.515c0,22.646,18.265,41.104,40.836,41.421v24.915
	c0,2.808,1.447,5.491,3.922,6.818c1.144,0.614,2.368,0.906,3.577,0.906c2.217,0,4.373-0.985,5.825-2.774l24.228-29.861h22.427
	c4.142,0,7.5-3.358,7.5-7.5l0,0c0-4.142-3.358-7.5-7.5-7.5h-26c-2.261,0-4.4,1.02-5.825,2.775l-13.154,16.213v-11.488
	c0-4.142-3.358-7.5-7.5-7.5h-6.911c-14.594,0-26.425-11.831-26.425-26.425V86.925c0-14.594,11.831-26.425,26.425-26.425h138.551
	c14.594,0,26.425,11.831,26.425,26.425v71.515c0,14.594-11.831,26.425-26.425,26.425h-30.36c-4.142,0-7.5,3.358-7.5,7.5l0,0
	c0,4.142,3.358,7.5,7.5,7.5h30.36c22.878,0,41.425-18.547,41.425-41.425V86.925C366.2,64.047,347.654,45.5,324.775,45.5z"/>
<path d="M292.775,296.5h-138.55c-22.842,0-41.425,18.583-41.425,41.425v71.515c0,22.842,18.583,41.425,41.425,41.425h101.588
	l24.228,29.861c1.452,1.79,3.608,2.774,5.825,2.774c0.838,0,1.686-0.141,2.506-0.432c2.993-1.062,4.993-3.893,4.993-7.068v-25.14
	c22.571-0.316,40.836-18.775,40.836-41.421v-71.515C334.2,315.083,315.617,296.5,292.775,296.5z M319.2,409.439
	c0,14.57-11.854,26.425-26.425,26.425h-6.911c-4.143,0-7.5,3.357-7.5,7.5v11.488l-13.154-16.214
	c-1.424-1.755-3.563-2.774-5.824-2.774H154.225c-14.57,0-26.425-11.854-26.425-26.425v-71.515c0-14.57,11.854-26.425,26.425-26.425
	h138.551c14.57,0,26.425,11.854,26.425,26.425L319.2,409.439L319.2,409.439z"/>
<path d="M121,238.113v-16.635c0-22.877-16.982-41.854-39-45.009v-18.11c22.739-8.371,39-30.251,39-55.859V70.336
	c21.194-7.027,36-27.078,36-49.878C157,9.178,147.822,0,136.542,0H56.87C26.614,0,2,24.614,2,54.87v47.63
	c0,24.849,15.317,46.177,37,55.069v18.9c-22.018,3.155-39,22.132-39,45.009v16.635C0,247.976,8.024,256,17.887,256h85.227
	C112.976,256,121,247.976,121,238.113z M17,102.5V72h25.5c4.143,0,7.5-3.357,7.5-7.5S46.643,57,42.5,57H17v-2.13
	C17,32.886,34.886,15,56.87,15h79.672c3.01,0,5.458,2.448,5.458,5.458c0,17.428-12.103,32.6-28.945,36.542H71.5
	c-4.143,0-7.5,3.357-7.5,7.5s3.357,7.5,7.5,7.5H106v30.5c0,24.537-19.963,44.5-44.5,44.5S17,127.037,17,102.5z M61.5,162
	c1.855,0,3.688-0.097,5.5-0.264V176H54v-14.489C56.459,161.822,58.958,162,61.5,162z M106,238.113c0,1.592-1.295,2.887-2.887,2.887
	H17.887c-1.592,0-2.887-1.295-2.887-2.887v-16.635C15,204.673,28.673,191,45.479,191H46.5h28h1.021
	C92.327,191,106,204.673,106,221.479V238.113z"/>
<path d="M489.452,284.728c-14.536-14.316-33.763-22.015-54.123-21.719C394.344,263.634,361,297.962,361,339.532v90.363
	c0,13.164,6.095,25.494,16.228,33.544c-1.44,4.425-2.228,9.14-2.228,14.039v16.635c0,9.862,8.024,17.887,17.887,17.887h85.227
	c9.862,0,17.887-8.024,17.887-17.887v-16.635c0-3.659-0.446-7.214-1.266-10.625C505.549,458.799,512,446,512,432.498V338.5
	C512,318.145,503.992,299.048,489.452,284.728z M481,494.113c0,1.592-1.295,2.887-2.887,2.887h-85.227
	c-1.592,0-2.887-1.295-2.887-2.887v-16.635C390,460.673,403.673,447,420.479,447h1.021h28h1.021
	C467.327,447,481,460.673,481,477.479V494.113z M436.5,403c-20.126,0-36.5-16.374-36.5-36.5v-13.609
	c26.406-1.65,47.864-21.852,51.468-47.69C464.329,310.964,473,323.855,473,338.5v28C473,386.626,456.626,403,436.5,403z M436.5,418
	c1.858,0,3.692-0.104,5.5-0.297V432h-13v-14.552C431.449,417.807,433.952,418,436.5,418z M497,432.498
	c0,7.572-3.126,14.801-8.498,20.006c-7.012-10.628-18.356-18.152-31.502-20.035v-18.737c18.224-7.94,31-26.118,31-47.232v-28
	c0-24.886-17.753-46.188-42.212-50.649c-2.245-0.411-4.562,0.228-6.282,1.731c-1.721,1.505-2.662,3.712-2.556,5.996
	c0.03,0.638,0.05,1.277,0.05,1.922c0,22.332-18.168,40.5-40.5,40.5c-1.021,0-2.128-0.05-3.387-0.153
	c-2.092-0.181-4.153,0.538-5.695,1.959c-1.541,1.42-2.418,3.42-2.418,5.516V366.5c0,20.334,11.848,37.949,29,46.315v19.654
	c-12.01,1.721-22.515,8.149-29.589,17.353c-5.297-5.174-8.411-12.339-8.411-19.927v-90.363c0-33.424,26.718-61.024,59.558-61.525
	c16.346-0.25,31.719,5.935,43.369,17.407C490.581,306.893,497,322.194,497,338.5V432.498z"/>
<g>
</g>
<g>
</g>
<g>
</g>
<g>
</g>
<g>
</g>
<g>
</g>
<g>
</g>
<g>
</g>
<g>
</g>
<g>
</g>
<g>
</g>
<g>
</g>
<g>
</g>
<g>
</g>
<g>
</g>
</svg>
